<?xml version="1.0" encoding="utf-8"?>
<!-- Generator: Adobe Illustrator 15.1.0, SVG Export Plug-In . SVG Version: 6.00 Build 0)  -->
<!DOCTYPE svg PUBLIC "-//W3C//DTD SVG 1.1//EN" "http://www.w3.org/Graphics/SVG/1.1/DTD/svg11.dtd">
<svg version="1.1" id="Layer_1" xmlns="http://www.w3.org/2000/svg" xmlns:xlink="http://www.w3.org/1999/xlink" x="0px" y="0px"
	 width="71px" height="71px" viewBox="-1 -1 71 71" enable-background="new -1 -1 71 71" xml:space="preserve">
<g>
	<polyline fill="#5B4386" stroke="#B4A2DB" stroke-width="2" stroke-miterlimit="10" points="0,69 69,69 69,0 0,0 0,69 	"/>
	<path fill="#FFFFFF" d="M15.4,19.9h1c0.3,0,0.6-0.101,0.7-0.2c0.1-0.1,0.199-0.3,0.199-0.4c0-0.199-0.1-0.3-0.199-0.399
		C17,18.8,16.7,18.7,16.4,18.7h-1V19.9 M15.4,17.5H16.3c0.301,0,0.5,0,0.601-0.1C17,17.3,17,17.2,17,17s-0.1-0.3-0.2-0.399
		C16.7,16.5,16.5,16.5,16.2,16.5h-0.9C15.4,16.5,15.4,17.5,15.4,17.5z M13.5,15.3H17.1c0.6,0,1,0.101,1.399,0.4
		c0.3,0.3,0.5,0.6,0.5,1c0,0.3-0.1,0.6-0.3,0.9C18.5,17.8,18.3,17.9,18,18c0.4,0.101,0.7,0.3,0.9,0.601c0.2,0.3,0.3,0.6,0.3,1
		c0,0.3-0.1,0.6-0.2,0.899c-0.1,0.3-0.3,0.5-0.6,0.601C18.2,21.2,18,21.3,17.7,21.3C17.3,21.4,17,21.4,16.9,21.4h-3.3V15.3H13.5z"/>
	<path fill="#FFFFFF" d="M21.5,19.1C21.5,19.5,21.6,19.8,21.7,20c0.2,0.2,0.3,0.3,0.6,0.3c0.2,0,0.4-0.1,0.601-0.3
		c0.1-0.2,0.2-0.5,0.2-0.899c0-0.4-0.101-0.7-0.2-0.9c-0.2-0.2-0.3-0.3-0.601-0.3c-0.199,0-0.399,0.1-0.6,0.3
		C21.6,18.5,21.5,18.7,21.5,19.1 M19.8,19.2c0-0.7,0.2-1.2,0.7-1.6c0.4-0.4,1-0.601,1.8-0.601c0.9,0,1.5,0.3,2,0.8
		c0.4,0.4,0.5,0.9,0.5,1.5c0,0.7-0.199,1.2-0.699,1.601C23.7,21.3,23,21.5,22.3,21.5C21.6,21.5,21,21.3,20.6,21
		C20.1,20.4,19.8,19.9,19.8,19.2z"/>
	<path fill="#FFFFFF" d="M27.1,19.1C27.1,19.5,27.2,19.8,27.3,20c0.2,0.2,0.301,0.3,0.601,0.3c0.2,0,0.399-0.1,0.6-0.3
		c0.101-0.2,0.2-0.5,0.2-0.899c0-0.4-0.1-0.7-0.2-0.9C28.4,18.1,28.2,18,28,18S27.6,18.1,27.4,18.3C27.2,18.5,27.1,18.7,27.1,19.1
		 M25.5,19.2c0-0.7,0.2-1.2,0.7-1.6C26.6,17.2,27.2,17,28,17c0.9,0,1.5,0.3,2,0.8c0.4,0.4,0.5,0.9,0.5,1.5c0,0.7-0.2,1.2-0.7,1.601
		C29.4,21.3,28.7,21.5,28,21.5s-1.3-0.2-1.7-0.5C25.7,20.4,25.5,19.9,25.5,19.2z"/>
	<path fill="#FFFFFF" d="M33.3,15.3V17h0.9v1.3h-0.9V19.9c0,0.2,0,0.3,0.101,0.399c0.1,0.101,0.2,0.101,0.3,0.101s0.3,0,0.5-0.101
		l0.1,1.101c-0.399,0.1-0.8,0.1-1.199,0.1c-0.4,0-0.7-0.1-0.9-0.2c-0.2-0.1-0.3-0.3-0.4-0.5c-0.1-0.199-0.1-0.6-0.1-1v-1.5H31V17
		H31.6v-0.8L33.3,15.3"/>
	<path fill="#FFFFFF" d="M34.7,20.2l1.7-0.2c0.1,0.2,0.1,0.3,0.3,0.4c0.1,0.1,0.3,0.1,0.4,0.1c0.199,0,0.3,0,0.5-0.1
		c0.1-0.101,0.1-0.2,0.1-0.3c0-0.101,0-0.2-0.1-0.301c0,0-0.301-0.1-0.7-0.199c-0.601-0.101-1-0.2-1.2-0.301
		c-0.2-0.1-0.4-0.199-0.6-0.399c-0.2-0.2-0.2-0.4-0.2-0.7s0.1-0.5,0.3-0.7s0.4-0.399,0.7-0.5c0.3-0.1,0.7-0.2,1.2-0.2
		S38,16.8,38.3,16.9c0.2,0.1,0.5,0.2,0.601,0.399c0.2,0.2,0.3,0.4,0.399,0.7L37.6,18.2c0-0.1-0.101-0.2-0.2-0.3
		C37.3,17.8,37.1,17.8,37,17.8c-0.2,0-0.3,0-0.399,0.101C36.5,18,36.5,18,36.5,18.1c0,0.1,0.101,0.199,0.2,0.199
		C36.8,18.4,37,18.4,37.4,18.4c0.6,0.1,1,0.1,1.2,0.3c0.3,0.1,0.5,0.3,0.6,0.5s0.2,0.4,0.2,0.7c0,0.2-0.101,0.5-0.2,0.7
		C39,20.8,38.8,21,38.5,21.2c-0.3,0.1-0.8,0.2-1.3,0.2c-0.8,0-1.4-0.101-1.7-0.3C35,20.9,34.8,20.6,34.7,20.2"/>
	<path fill="#FFFFFF" d="M42.1,15.3V17H43v1.3H42.1V19.9c0,0.2,0,0.3,0.1,0.399c0.1,0.101,0.2,0.101,0.3,0.101
		c0.101,0,0.3,0,0.5-0.101L43.1,21.4c-0.4,0.1-0.801,0.1-1.2,0.1c-0.4,0-0.7-0.1-0.9-0.2c-0.2-0.1-0.3-0.3-0.399-0.5
		C40.5,20.6,40.5,20.2,40.5,19.8v-1.5h-0.6V17h0.6v-0.8L42.1,15.3"/>
	<path fill="#FFFFFF" d="M43.8,17H45.4v0.8c0.2-0.3,0.3-0.5,0.5-0.699c0.2-0.101,0.399-0.2,0.6-0.2s0.5,0.1,0.8,0.2L46.8,18.3
		c-0.199-0.1-0.399-0.1-0.5-0.1c-0.199,0-0.399,0.1-0.5,0.3c-0.199,0.3-0.3,0.7-0.3,1.4V21.3h-1.7V17"/>
	<path fill="#FFFFFF" d="M50.7,19.3C50.5,19.4,50.3,19.4,50,19.5c-0.3,0.101-0.5,0.2-0.6,0.3C49.3,19.9,49.3,20,49.3,20.1
		c0,0.1,0,0.199,0.101,0.3c0.1,0.1,0.2,0.1,0.399,0.1c0.2,0,0.301,0,0.5-0.1c0.2-0.101,0.301-0.2,0.301-0.3
		c0.1-0.101,0.1-0.301,0.1-0.5V19.3 M49.4,18.5l-1.7-0.2c0.1-0.3,0.1-0.5,0.3-0.699c0.101-0.2,0.3-0.301,0.5-0.4S48.9,17,49.1,17
		c0.3,0,0.6-0.1,0.899-0.1c0.5,0,0.9,0,1.2,0.1c0.3,0.101,0.6,0.2,0.8,0.4c0.101,0.1,0.3,0.3,0.3,0.5C52.4,18.1,52.4,18.3,52.4,18.5
		v1.9c0,0.2,0,0.399,0,0.5c0,0.1,0.1,0.3,0.2,0.399H51c-0.1-0.1-0.1-0.199-0.1-0.3c0-0.1,0-0.2-0.101-0.3
		c-0.199,0.2-0.399,0.4-0.6,0.4c-0.3,0.1-0.6,0.199-1,0.199c-0.5,0-0.9-0.1-1.2-0.399C47.7,20.7,47.6,20.4,47.6,20
		c0-0.3,0.1-0.6,0.3-0.8s0.5-0.4,1.1-0.5c0.601-0.1,1-0.2,1.2-0.3c0.2,0,0.4-0.101,0.6-0.2c0-0.2,0-0.3-0.1-0.4
		C50.5,18,50.4,18,50.2,18s-0.4,0-0.5,0.101C49.6,18.2,49.5,18.3,49.4,18.5z"/>
	<path fill="#FFFFFF" d="M55.1,19.2c0,0.4,0.1,0.7,0.199,0.9c0.101,0.199,0.301,0.3,0.5,0.3c0.2,0,0.4-0.101,0.5-0.3
		c0.101-0.2,0.2-0.5,0.2-0.9s-0.1-0.7-0.2-0.9C56.2,18.1,56,18,55.8,18C55.6,18,55.4,18.1,55.3,18.3C55.1,18.4,55.1,18.7,55.1,19.2
		 M53.4,23v-6H55V17.6c0.2-0.2,0.4-0.4,0.601-0.5c0.199-0.101,0.5-0.2,0.8-0.2c0.6,0,1,0.2,1.399,0.7c0.301,0.399,0.5,1,0.5,1.699
		c0,0.7-0.199,1.301-0.5,1.7C57.5,21.4,57,21.6,56.5,21.6c-0.3,0-0.5,0-0.7-0.101c-0.199-0.1-0.399-0.2-0.6-0.3V23H53.4z"/>
	<path opacity="0.191" fill="#010101" enable-background="new    " d="M71.9,51.2C66.5,45.7,44.2,27,44.2,27l-20.8-1.5v30.7
		l18.2,15.7H71.8V51.2"/>
	<path fill="#FFFFFF" d="M29.2,42.9V51h6c2.3,0,3.8-0.1,4.4-0.2C40.6,50.6,41.3,50.2,42,49.6C42.6,49,42.9,48.1,42.9,47
		c0-0.899-0.2-1.7-0.7-2.3s-1.1-1.1-2-1.4C39.3,43,37.4,42.9,34.5,42.9H29.2 M29.2,30.5v7.3h4.2c2.5,0,4.1,0,4.7-0.1
		c1.1-0.1,2-0.5,2.6-1.1c0.6-0.601,0.9-1.4,0.9-2.5c0-1-0.301-1.801-0.801-2.4s-1.399-1-2.399-1.1C37.8,30.5,35.9,30.5,32.9,30.5
		H29.2L29.2,30.5z M23.4,25.4h12.2C38,25.4,39.8,25.5,41,25.7s2.3,0.6,3.2,1.3s1.7,1.5,2.3,2.601c0.601,1.1,0.9,2.3,0.9,3.6
		c0,1.5-0.4,2.8-1.101,4C45.6,38.4,44.6,39.3,43.4,39.9c1.7,0.5,3,1.5,3.899,2.8c0.9,1.3,1.4,2.8,1.4,4.6c0,1.4-0.3,2.7-1,4
		c-0.6,1.301-1.5,2.4-2.6,3.101C44,55.2,42.6,55.7,41,55.8C40,55.9,37.5,56,33.6,56H23.4V25.4L23.4,25.4z"/>
</g>
</svg>
