<?xml version="1.0" encoding="utf-8"?>
<!-- Generator: Adobe Illustrator 15.1.0, SVG Export Plug-In . SVG Version: 6.00 Build 0)  -->
<!DOCTYPE svg PUBLIC "-//W3C//DTD SVG 1.1//EN" "http://www.w3.org/Graphics/SVG/1.1/DTD/svg11.dtd">
<svg version="1.1" id="Layer_1" xmlns="http://www.w3.org/2000/svg" xmlns:xlink="http://www.w3.org/1999/xlink" x="0px" y="0px"
	 width="71.744px" height="81.375px" viewBox="14.756 3.598 71.744 81.375" enable-background="new 14.756 3.598 71.744 81.375"
	 xml:space="preserve">
<g>
	<path fill="#63A814" d="M21.256,76.786l-6.5-73.188H86.5L80,76.786l-29.372,8.186L21.256,76.786z"/>
	<path fill="#8ACF17" d="M50.628,78.664l23.714-6.572l5.585-62.475H50.628V78.664z"/>
	<path id="J_1_" fill="#FFFFFF" d="M28.118,18.765l0.794,8.908h34.283l-2.576,29.829l-10.015,2.697l-9.991-2.697l-0.65-7.198h-9.028
		l1.252,14.132l18.393,5.128l18.442-5.128l4.093-45.67H28.118z"/>
	<path fill="#EBEBEB" d="M50.604,60.199l-9.991-2.697l-0.65-7.198h-9.028l1.252,14.132l18.441,5.128L50.604,60.199z M28.912,27.673
		h21.716v-8.908h-22.51L28.912,27.673z"/>
</g>
</svg>
