<?xml version="1.0" encoding="utf-8"?>
<!-- Generator: Adobe Illustrator 18.0.0, SVG Export Plug-In . SVG Version: 6.00 Build 0)  -->
<!DOCTYPE svg PUBLIC "-//W3C//DTD SVG 1.1//EN" "http://www.w3.org/Graphics/SVG/1.1/DTD/svg11.dtd">
<svg version="1.1" id="Layer_1" xmlns="http://www.w3.org/2000/svg" xmlns:xlink="http://www.w3.org/1999/xlink" x="0px" y="0px"
	 width="71.9px" height="71.9px" viewBox="0 0 71.9 71.9" enable-background="new 0 0 71.9 71.9" xml:space="preserve">
<g>
	<polyline fill="#5B4386" points="0,71.9 71.9,71.9 71.9,0 0,0 0,71.9 	"/>
	<path fill="#FFFFFF" d="M15.4,19.9h1c0.3,0,0.6-0.1,0.7-0.2c0.1-0.1,0.2-0.3,0.2-0.4c0-0.2-0.1-0.3-0.2-0.4
		c-0.1-0.1-0.4-0.2-0.7-0.2h-1V19.9 M15.4,17.5h0.9c0.3,0,0.5,0,0.6-0.1C17,17.3,17,17.2,17,17c0-0.2-0.1-0.3-0.2-0.4
		c-0.1-0.1-0.3-0.1-0.6-0.1h-0.9C15.4,16.5,15.4,17.5,15.4,17.5z M13.5,15.3h3.6c0.6,0,1,0.1,1.4,0.4c0.3,0.3,0.5,0.6,0.5,1
		c0,0.3-0.1,0.6-0.3,0.9c-0.2,0.2-0.4,0.3-0.7,0.4c0.4,0.1,0.7,0.3,0.9,0.6c0.2,0.3,0.3,0.6,0.3,1c0,0.3-0.1,0.6-0.2,0.9
		c-0.1,0.3-0.3,0.5-0.6,0.6c-0.2,0.1-0.4,0.2-0.7,0.2c-0.4,0.1-0.7,0.1-0.8,0.1h-3.3V15.3z"/>
	<path fill="#FFFFFF" d="M21.5,19.1c0,0.4,0.1,0.7,0.2,0.9c0.2,0.2,0.3,0.3,0.6,0.3c0.2,0,0.4-0.1,0.6-0.3c0.1-0.2,0.2-0.5,0.2-0.9
		c0-0.4-0.1-0.7-0.2-0.9c-0.2-0.2-0.3-0.3-0.6-0.3c-0.2,0-0.4,0.1-0.6,0.3C21.6,18.5,21.5,18.7,21.5,19.1 M19.8,19.2
		c0-0.7,0.2-1.2,0.7-1.6c0.4-0.4,1-0.6,1.8-0.6c0.9,0,1.5,0.3,2,0.8c0.4,0.4,0.5,0.9,0.5,1.5c0,0.7-0.2,1.2-0.7,1.6
		c-0.4,0.4-1.1,0.6-1.8,0.6c-0.7,0-1.3-0.2-1.7-0.5C20.1,20.4,19.8,19.9,19.8,19.2z"/>
	<path fill="#FFFFFF" d="M27.1,19.1c0,0.4,0.1,0.7,0.2,0.9c0.2,0.2,0.3,0.3,0.6,0.3c0.2,0,0.4-0.1,0.6-0.3c0.1-0.2,0.2-0.5,0.2-0.9
		c0-0.4-0.1-0.7-0.2-0.9C28.4,18.1,28.2,18,28,18c-0.2,0-0.4,0.1-0.6,0.3C27.2,18.5,27.1,18.7,27.1,19.1 M25.5,19.2
		c0-0.7,0.2-1.2,0.7-1.6c0.4-0.4,1-0.6,1.8-0.6c0.9,0,1.5,0.3,2,0.8c0.4,0.4,0.5,0.9,0.5,1.5c0,0.7-0.2,1.2-0.7,1.6
		c-0.4,0.4-1.1,0.6-1.8,0.6c-0.7,0-1.3-0.2-1.7-0.5C25.7,20.4,25.5,19.9,25.5,19.2z"/>
	<path fill="#FFFFFF" d="M33.3,15.3V17h0.9v1.3h-0.9v1.6c0,0.2,0,0.3,0.1,0.4c0.1,0.1,0.2,0.1,0.3,0.1c0.1,0,0.3,0,0.5-0.1l0.1,1.1
		c-0.4,0.1-0.8,0.1-1.2,0.1c-0.4,0-0.7-0.1-0.9-0.2c-0.2-0.1-0.3-0.3-0.4-0.5c-0.1-0.2-0.1-0.6-0.1-1v-1.5H31V17h0.6v-0.8L33.3,15.3
		"/>
	<path fill="#FFFFFF" d="M34.7,20.2l1.7-0.2c0.1,0.2,0.1,0.3,0.3,0.4c0.1,0.1,0.3,0.1,0.4,0.1c0.2,0,0.3,0,0.5-0.1
		c0.1-0.1,0.1-0.2,0.1-0.3c0-0.1,0-0.2-0.1-0.3c0,0-0.3-0.1-0.7-0.2c-0.6-0.1-1-0.2-1.2-0.3c-0.2-0.1-0.4-0.2-0.6-0.4
		c-0.2-0.2-0.2-0.4-0.2-0.7c0-0.3,0.1-0.5,0.3-0.7c0.2-0.2,0.4-0.4,0.7-0.5c0.3-0.1,0.7-0.2,1.2-0.2c0.5,0,0.9,0,1.2,0.1
		c0.2,0.1,0.5,0.2,0.6,0.4c0.2,0.2,0.3,0.4,0.4,0.7l-1.7,0.2c0-0.1-0.1-0.2-0.2-0.3c-0.1-0.1-0.3-0.1-0.4-0.1c-0.2,0-0.3,0-0.4,0.1
		c-0.1,0.1-0.1,0.1-0.1,0.2c0,0.1,0.1,0.2,0.2,0.2c0.1,0.1,0.3,0.1,0.7,0.1c0.6,0.1,1,0.1,1.2,0.3c0.3,0.1,0.5,0.3,0.6,0.5
		c0.1,0.2,0.2,0.4,0.2,0.7c0,0.2-0.1,0.5-0.2,0.7c-0.2,0.2-0.4,0.4-0.7,0.6c-0.3,0.1-0.8,0.2-1.3,0.2c-0.8,0-1.4-0.1-1.7-0.3
		C35,20.9,34.8,20.6,34.7,20.2"/>
	<path fill="#FFFFFF" d="M42.1,15.3V17h0.9v1.3h-0.9v1.6c0,0.2,0,0.3,0.1,0.4c0.1,0.1,0.2,0.1,0.3,0.1c0.1,0,0.3,0,0.5-0.1l0.1,1.1
		c-0.4,0.1-0.8,0.1-1.2,0.1c-0.4,0-0.7-0.1-0.9-0.2c-0.2-0.1-0.3-0.3-0.4-0.5c-0.1-0.2-0.1-0.6-0.1-1v-1.5h-0.6V17h0.6v-0.8
		L42.1,15.3"/>
	<path fill="#FFFFFF" d="M43.8,17h1.6v0.8c0.2-0.3,0.3-0.5,0.5-0.7c0.2-0.1,0.4-0.2,0.6-0.2c0.2,0,0.5,0.1,0.8,0.2l-0.5,1.2
		c-0.2-0.1-0.4-0.1-0.5-0.1c-0.2,0-0.4,0.1-0.5,0.3c-0.2,0.3-0.3,0.7-0.3,1.4v1.4h-1.7L43.8,17"/>
	<path fill="#FFFFFF" d="M50.7,19.3c-0.2,0.1-0.4,0.1-0.7,0.2c-0.3,0.1-0.5,0.2-0.6,0.3c-0.1,0.1-0.1,0.2-0.1,0.3
		c0,0.1,0,0.2,0.1,0.3c0.1,0.1,0.2,0.1,0.4,0.1c0.2,0,0.3,0,0.5-0.1c0.2-0.1,0.3-0.2,0.3-0.3c0.1-0.1,0.1-0.3,0.1-0.5L50.7,19.3
		 M49.4,18.5l-1.7-0.2c0.1-0.3,0.1-0.5,0.3-0.7c0.1-0.2,0.3-0.3,0.5-0.4c0.2-0.1,0.4-0.2,0.6-0.2c0.3,0,0.6-0.1,0.9-0.1
		c0.5,0,0.9,0,1.2,0.1c0.3,0.1,0.6,0.2,0.8,0.4c0.1,0.1,0.3,0.3,0.3,0.5c0.1,0.2,0.1,0.4,0.1,0.6v1.9c0,0.2,0,0.4,0,0.5
		c0,0.1,0.1,0.3,0.2,0.4H51c-0.1-0.1-0.1-0.2-0.1-0.3c0-0.1,0-0.2-0.1-0.3c-0.2,0.2-0.4,0.4-0.6,0.4c-0.3,0.1-0.6,0.2-1,0.2
		c-0.5,0-0.9-0.1-1.2-0.4c-0.3-0.2-0.4-0.5-0.4-0.9c0-0.3,0.1-0.6,0.3-0.8c0.2-0.2,0.5-0.4,1.1-0.5c0.6-0.1,1-0.2,1.2-0.3
		c0.2,0,0.4-0.1,0.6-0.2c0-0.2,0-0.3-0.1-0.4C50.5,18,50.4,18,50.2,18c-0.2,0-0.4,0-0.5,0.1C49.6,18.2,49.5,18.3,49.4,18.5z"/>
	<path fill="#FFFFFF" d="M55.1,19.2c0,0.4,0.1,0.7,0.2,0.9c0.1,0.2,0.3,0.3,0.5,0.3c0.2,0,0.4-0.1,0.5-0.3c0.1-0.2,0.2-0.5,0.2-0.9
		c0-0.4-0.1-0.7-0.2-0.9C56.2,18.1,56,18,55.8,18c-0.2,0-0.4,0.1-0.5,0.3C55.1,18.4,55.1,18.7,55.1,19.2 M53.4,23V17h1.6v0.6
		c0.2-0.2,0.4-0.4,0.6-0.5c0.2-0.1,0.5-0.2,0.8-0.2c0.6,0,1,0.2,1.4,0.7c0.3,0.4,0.5,1,0.5,1.7c0,0.7-0.2,1.3-0.5,1.7
		c-0.3,0.4-0.8,0.6-1.3,0.6c-0.3,0-0.5,0-0.7-0.1c-0.2-0.1-0.4-0.2-0.6-0.3V23H53.4z"/>
	<path opacity="0.191" fill="#010101" enable-background="new    " d="M71.9,51.2C66.5,45.7,44.2,27,44.2,27l-20.8-1.5v30.7
		l18.2,15.7h30.2V51.2"/>
	<path fill="#FFFFFF" d="M29.2,42.9V51h6c2.3,0,3.8-0.1,4.4-0.2c1-0.2,1.7-0.6,2.4-1.2c0.6-0.6,0.9-1.5,0.9-2.6
		c0-0.9-0.2-1.7-0.7-2.3c-0.5-0.6-1.1-1.1-2-1.4c-0.9-0.3-2.8-0.4-5.7-0.4L29.2,42.9 M29.2,30.5v7.3h4.2c2.5,0,4.1,0,4.7-0.1
		c1.1-0.1,2-0.5,2.6-1.1c0.6-0.6,0.9-1.4,0.9-2.5c0-1-0.3-1.8-0.8-2.4c-0.5-0.6-1.4-1-2.4-1.1c-0.6-0.1-2.5-0.1-5.5-0.1L29.2,30.5
		L29.2,30.5z M23.4,25.4h12.2c2.4,0,4.2,0.1,5.4,0.3c1.2,0.2,2.3,0.6,3.2,1.3c0.9,0.7,1.7,1.5,2.3,2.6c0.6,1.1,0.9,2.3,0.9,3.6
		c0,1.5-0.4,2.8-1.1,4c-0.7,1.2-1.7,2.1-2.9,2.7c1.7,0.5,3,1.5,3.9,2.8c0.9,1.3,1.4,2.8,1.4,4.6c0,1.4-0.3,2.7-1,4
		c-0.6,1.3-1.5,2.4-2.6,3.1c-1.1,0.8-2.5,1.3-4.1,1.4c-1,0.1-3.5,0.2-7.4,0.2H23.4L23.4,25.4L23.4,25.4z"/>
</g>
</svg>
