<?xml version="1.0" encoding="utf-8"?>
<!-- Generator: Adobe Illustrator 15.1.0, SVG Export Plug-In . SVG Version: 6.00 Build 0)  -->
<!DOCTYPE svg PUBLIC "-//W3C//DTD SVG 1.1//EN" "http://www.w3.org/Graphics/SVG/1.1/DTD/svg11.dtd">
<svg version="1.1" id="Layer_1" xmlns="http://www.w3.org/2000/svg" xmlns:xlink="http://www.w3.org/1999/xlink" x="0px" y="0px"
	 width="71.14px" height="69.361px" viewBox="2 0.693 71.14 69.361" enable-background="new 2 0.693 71.14 69.361"
	 xml:space="preserve">
<radialGradient id="SVGID_1_" cx="-10.8623" cy="87.0142" r="0.0907" gradientTransform="matrix(545.6736 0 0 -528.3113 5953.9053 45988.293)" gradientUnits="userSpaceOnUse">
	<stop  offset="0" style="stop-color:#34364E;stop-opacity:0.98"/>
	<stop  offset="1" style="stop-color:#0C0824"/>
</radialGradient>
<path fill="url(#SVGID_1_)" d="M4.964,3.658h65.211V67.09H4.964V3.658z"/>
<path fill="#31C5F0" d="M4.964,3.658h65.211V67.09H4.964V3.658z M2,70.055h71.14V0.693H2V70.055z M49.96,29.149
	c-2.342,0-3.142,1.186-3.142,2.164c0,1.067,0.534,1.808,3.676,3.438c4.654,2.252,6.106,4.417,6.106,7.588
	c0,4.742-3.616,7.292-8.507,7.292c-2.579,0-4.802-0.534-6.077-1.274c-0.208-0.089-0.237-0.237-0.237-0.474v-4.357
	c0-0.296,0.148-0.386,0.356-0.237c1.867,1.215,4.001,1.749,5.958,1.749c2.341,0,3.32-0.978,3.32-2.312
	c0-1.067-0.682-2.016-3.676-3.557c-4.209-2.016-5.958-4.061-5.958-7.47c0-3.824,2.994-6.995,8.181-6.995
	c2.549,0,4.328,0.385,5.306,0.83c0.237,0.148,0.296,0.386,0.296,0.593v4.061c0,0.237-0.148,0.385-0.445,0.296
	C53.813,29.653,51.887,29.149,49.96,29.149L49.96,29.149z M24.468,32.676c0.682,0.06,1.215,0.06,2.401,0.06
	c3.468,0,6.729-1.215,6.729-5.928c0-3.765-2.341-5.662-6.284-5.662c-1.186,0-2.312,0.059-2.846,0.089V32.676L24.468,32.676z
	 M19.192,16.937c0-0.208,0.415-0.356,0.652-0.356c1.897-0.089,4.713-0.148,7.647-0.148c8.21,0,11.412,4.505,11.412,10.256
	c0,7.529-5.454,10.76-12.153,10.76c-1.127,0-1.512-0.059-2.312-0.059v11.382c0,0.237-0.089,0.355-0.355,0.355h-4.535
	c-0.237,0-0.356-0.089-0.356-0.355V16.937L19.192,16.937z"/>
</svg>
