<?xml version="1.0" encoding="utf-8"?>
<!-- Generator: Adobe Illustrator 18.0.0, SVG Export Plug-In . SVG Version: 6.00 Build 0)  -->
<!DOCTYPE svg PUBLIC "-//W3C//DTD SVG 1.1//EN" "http://www.w3.org/Graphics/SVG/1.1/DTD/svg11.dtd">
<svg version="1.1" id="Layer_1" xmlns="http://www.w3.org/2000/svg" xmlns:xlink="http://www.w3.org/1999/xlink" x="0px" y="0px"
	 viewBox="0 0 72.3 72.3" enable-background="new 0 0 72.3 72.3" xml:space="preserve">
<g>
	<polyline fill="#5B4386" points="0,72.3 72.3,72.3 72.3,0 0,0 0,72.3 	"/>
	<path fill="#FFFFFF" d="M15.4,20h1c0.3,0,0.6-0.1,0.7-0.2c0.1-0.1,0.2-0.3,0.2-0.4c0-0.2-0.1-0.3-0.2-0.4c-0.1-0.1-0.4-0.2-0.7-0.2
		h-1V20 M15.4,17.6h0.9c0.3,0,0.5,0,0.6-0.1c0.1-0.1,0.2-0.2,0.2-0.4c0-0.2-0.1-0.3-0.2-0.4c-0.1-0.1-0.3-0.1-0.6-0.1h-0.9
		C15.4,16.6,15.4,17.6,15.4,17.6z M13.6,15.4h3.6c0.6,0,1.1,0.1,1.4,0.4c0.3,0.3,0.5,0.6,0.5,1c0,0.3-0.1,0.6-0.3,0.9
		c-0.2,0.2-0.4,0.3-0.7,0.4c0.4,0.1,0.7,0.3,1,0.6c0.2,0.3,0.3,0.6,0.3,1c0,0.3-0.1,0.6-0.2,0.9c-0.1,0.3-0.4,0.5-0.6,0.6
		c-0.2,0.1-0.4,0.2-0.7,0.2c-0.4,0.1-0.7,0.1-0.8,0.1h-3.3V15.4z"/>
	<path fill="#FFFFFF" d="M21.6,19.2c0,0.4,0.1,0.7,0.2,0.9c0.2,0.2,0.3,0.3,0.6,0.3c0.2,0,0.4-0.1,0.6-0.3c0.2-0.2,0.2-0.5,0.2-0.9
		c0-0.4-0.1-0.7-0.2-0.9c-0.2-0.2-0.3-0.3-0.6-0.3c-0.2,0-0.4,0.1-0.6,0.3C21.7,18.5,21.6,18.8,21.6,19.2 M19.9,19.3
		c0-0.7,0.2-1.2,0.7-1.6c0.4-0.4,1.1-0.6,1.8-0.6c0.9,0,1.5,0.3,2,0.8c0.4,0.4,0.5,0.9,0.5,1.5c0,0.7-0.2,1.2-0.7,1.7
		c-0.4,0.4-1.1,0.6-1.8,0.6c-0.7,0-1.3-0.2-1.7-0.5C20.2,20.6,19.9,20,19.9,19.3z"/>
	<path fill="#FFFFFF" d="M27.3,19.2c0,0.4,0.1,0.7,0.2,0.9c0.2,0.2,0.3,0.3,0.6,0.3c0.2,0,0.4-0.1,0.6-0.3c0.2-0.2,0.2-0.5,0.2-0.9
		c0-0.4-0.1-0.7-0.2-0.9c-0.2-0.2-0.3-0.3-0.6-0.3c-0.2,0-0.4,0.1-0.6,0.3C27.4,18.5,27.3,18.8,27.3,19.2 M25.6,19.3
		c0-0.7,0.2-1.2,0.7-1.6c0.4-0.4,1.1-0.6,1.8-0.6c0.9,0,1.5,0.3,2,0.8c0.4,0.4,0.5,0.9,0.5,1.5c0,0.7-0.2,1.2-0.7,1.7
		c-0.4,0.4-1.1,0.6-1.8,0.6c-0.7,0-1.3-0.2-1.7-0.5C25.9,20.6,25.6,20,25.6,19.3z"/>
	<path fill="#FFFFFF" d="M33.5,15.4V17h0.9v1.3h-0.9v1.6c0,0.2,0,0.3,0.1,0.4c0.1,0.1,0.2,0.1,0.3,0.1c0.1,0,0.3,0,0.5-0.1l0.1,1.1
		c-0.4,0.1-0.8,0.1-1.2,0.1c-0.4,0-0.7-0.1-0.9-0.2c-0.2-0.1-0.3-0.3-0.4-0.5c-0.1-0.2-0.1-0.6-0.1-1v-1.5h-0.6V17h0.6v-0.8
		L33.5,15.4"/>
	<path fill="#FFFFFF" d="M34.9,20.3l1.7-0.2c0.1,0.2,0.1,0.3,0.3,0.4c0.1,0.1,0.3,0.1,0.4,0.1c0.2,0,0.4,0,0.5-0.1
		c0.1-0.1,0.1-0.2,0.1-0.3c0-0.1,0-0.2-0.1-0.3c0,0-0.3-0.1-0.7-0.2c-0.6-0.1-1-0.2-1.2-0.3c-0.2-0.1-0.4-0.2-0.6-0.4
		c-0.2-0.2-0.2-0.4-0.2-0.7c0-0.3,0.1-0.5,0.3-0.7c0.2-0.2,0.4-0.4,0.7-0.5c0.3-0.1,0.7-0.2,1.2-0.2c0.5,0,0.9,0,1.2,0.1
		c0.2,0.1,0.5,0.2,0.6,0.4c0.2,0.2,0.3,0.4,0.4,0.7l-1.7,0.2c0-0.1-0.1-0.2-0.2-0.3c-0.1-0.1-0.3-0.1-0.4-0.1c-0.2,0-0.3,0-0.4,0.1
		c-0.1,0.1-0.1,0.1-0.1,0.2c0,0.1,0.1,0.2,0.2,0.2c0.1,0.1,0.3,0.1,0.7,0.1c0.6,0.1,1,0.1,1.3,0.3c0.3,0.1,0.5,0.3,0.6,0.5
		c0.1,0.2,0.2,0.4,0.2,0.7c0,0.2-0.1,0.5-0.2,0.7c-0.2,0.2-0.4,0.4-0.7,0.6c-0.3,0.1-0.8,0.2-1.3,0.2c-0.8,0-1.4-0.1-1.7-0.3
		C35.2,21,35,20.7,34.9,20.3"/>
	<path fill="#FFFFFF" d="M42.4,15.4V17h0.9v1.3h-0.9v1.6c0,0.2,0,0.3,0.1,0.4c0.1,0.1,0.2,0.1,0.3,0.1c0.1,0,0.3,0,0.5-0.1l0.1,1.1
		c-0.4,0.1-0.8,0.1-1.2,0.1c-0.4,0-0.7-0.1-0.9-0.2c-0.2-0.1-0.3-0.3-0.4-0.5c-0.1-0.2-0.1-0.6-0.1-1v-1.5h-0.6V17h0.6v-0.8
		L42.4,15.4"/>
	<path fill="#FFFFFF" d="M44.1,17h1.6v0.8c0.2-0.3,0.3-0.5,0.5-0.7c0.2-0.1,0.4-0.2,0.6-0.2c0.2,0,0.5,0.1,0.8,0.2L47,18.4
		c-0.2-0.1-0.4-0.1-0.5-0.1c-0.2,0-0.4,0.1-0.5,0.3c-0.2,0.3-0.3,0.7-0.3,1.4v1.4h-1.7L44.1,17"/>
	<path fill="#FFFFFF" d="M51,19.4c-0.2,0.1-0.4,0.1-0.7,0.2c-0.3,0.1-0.5,0.2-0.6,0.3c-0.1,0.1-0.1,0.2-0.1,0.3c0,0.1,0,0.2,0.1,0.3
		c0.1,0.1,0.2,0.1,0.4,0.1c0.2,0,0.3,0,0.5-0.1c0.2-0.1,0.3-0.2,0.3-0.3c0.1-0.1,0.1-0.3,0.1-0.5L51,19.4 M49.7,18.6L48,18.4
		c0.1-0.3,0.1-0.5,0.3-0.7c0.1-0.2,0.3-0.3,0.5-0.4c0.2-0.1,0.4-0.2,0.6-0.2c0.3,0,0.6-0.1,0.9-0.1c0.5,0,0.9,0,1.2,0.1
		c0.3,0.1,0.6,0.2,0.8,0.4c0.1,0.1,0.3,0.3,0.3,0.5c0.1,0.2,0.1,0.4,0.1,0.7v1.9c0,0.2,0,0.4,0,0.5c0,0.1,0.1,0.3,0.2,0.4h-1.6
		c-0.1-0.1-0.1-0.2-0.1-0.3c0-0.1,0-0.2-0.1-0.3c-0.2,0.2-0.4,0.4-0.6,0.4c-0.3,0.1-0.6,0.2-1,0.2c-0.5,0-0.9-0.1-1.2-0.4
		c-0.3-0.2-0.4-0.5-0.4-0.9c0-0.3,0.1-0.6,0.3-0.8c0.2-0.2,0.5-0.4,1.1-0.5c0.6-0.1,1-0.2,1.2-0.3c0.2,0,0.4-0.1,0.6-0.2
		c0-0.2,0-0.3-0.1-0.4c-0.1-0.1-0.2-0.1-0.4-0.1c-0.2,0-0.4,0-0.5,0.1C49.8,18.3,49.7,18.4,49.7,18.6z"/>
	<path fill="#FFFFFF" d="M55.3,19.3c0,0.4,0.1,0.7,0.2,0.9c0.1,0.2,0.3,0.3,0.5,0.3c0.2,0,0.4-0.1,0.5-0.3c0.1-0.2,0.2-0.5,0.2-0.9
		c0-0.4-0.1-0.7-0.2-0.9c-0.1-0.2-0.3-0.3-0.5-0.3c-0.2,0-0.4,0.1-0.5,0.3C55.4,18.5,55.3,18.8,55.3,19.3 M53.7,23.1V17h1.6v0.6
		c0.2-0.2,0.4-0.4,0.6-0.5c0.2-0.1,0.5-0.2,0.8-0.2c0.6,0,1,0.2,1.4,0.7c0.3,0.4,0.5,1,0.5,1.7c0,0.7-0.2,1.3-0.5,1.7
		c-0.3,0.4-0.8,0.6-1.3,0.6c-0.3,0-0.5,0-0.7-0.1c-0.2-0.1-0.4-0.2-0.6-0.3v2.1H53.7z"/>
	<path opacity="0.191" fill="#010101" enable-background="new    " d="M72.3,51.5c-5.4-5.6-27.8-24.4-27.8-24.4l-20.9-1.6v30.9
		l18.3,15.8h30.3V51.5"/>
	<path fill="#FFFFFF" d="M29.4,43.1v8.2h6c2.3,0,3.8-0.1,4.5-0.2c1-0.2,1.8-0.6,2.4-1.2s0.9-1.5,0.9-2.6c0-0.9-0.2-1.7-0.7-2.3
		c-0.5-0.6-1.1-1.1-2-1.4c-0.9-0.3-2.8-0.4-5.8-0.4L29.4,43.1 M29.4,30.7V38h4.2c2.5,0,4.1,0,4.7-0.1c1.1-0.1,2-0.5,2.6-1.1
		c0.6-0.6,1-1.4,1-2.5c0-1-0.3-1.8-0.8-2.4c-0.5-0.6-1.4-1-2.4-1.1c-0.6-0.1-2.5-0.1-5.5-0.1L29.4,30.7L29.4,30.7z M23.5,25.5h12.3
		c2.4,0,4.2,0.1,5.4,0.3c1.2,0.2,2.3,0.6,3.2,1.3c0.9,0.7,1.7,1.5,2.4,2.6c0.6,1.1,0.9,2.3,0.9,3.7c0,1.5-0.4,2.8-1.1,4
		c-0.7,1.2-1.7,2.1-3,2.8c1.7,0.5,3,1.5,3.9,2.8c0.9,1.3,1.4,2.9,1.4,4.6c0,1.4-0.3,2.7-1,4.1c-0.6,1.3-1.5,2.4-2.6,3.2
		c-1.1,0.8-2.5,1.3-4.1,1.5c-1,0.1-3.5,0.2-7.4,0.2H23.5L23.5,25.5L23.5,25.5z"/>
</g>
</svg>
