<?xml version="1.0" encoding="utf-8"?>
<!-- Generator: Adobe Illustrator 15.1.0, SVG Export Plug-In . SVG Version: 6.00 Build 0)  -->
<!DOCTYPE svg PUBLIC "-//W3C//DTD SVG 1.1//EN" "http://www.w3.org/Graphics/SVG/1.1/DTD/svg11.dtd">
<svg version="1.1" id="Layer_1" xmlns="http://www.w3.org/2000/svg" xmlns:xlink="http://www.w3.org/1999/xlink" x="0px" y="0px"
	 width="71.14px" height="69.361px" viewBox="0 -1 71.14 69.361" enable-background="new 0 -1 71.14 69.361" xml:space="preserve">
<radialGradient id="SVGID_1_" cx="-10.8662" cy="87.0176" r="0.0912" gradientTransform="matrix(545.6736 0 0 -528.3113 5953.9053 45988.293)" gradientUnits="userSpaceOnUse">
	<stop  offset="0" style="stop-color:#423325;stop-opacity:0.98"/>
	<stop  offset="1" style="stop-color:#1C0A00"/>
</radialGradient>
<path fill="url(#SVGID_1_)" d="M2.964,1.965h65.211v63.433H2.964V1.965z"/>
<path fill="#FF7F18" d="M2.964,1.965h65.211v63.433H2.964V1.965z M0,68.362h71.14V-1H0V68.362z M46.596,23.722
	c0-0.237,0.089-0.356,0.356-0.356h4.654c0.237,0,0.355,0.089,0.355,0.356v23.387c0,0.237-0.059,0.355-0.355,0.355h-4.595
	c-0.296,0-0.385-0.148-0.385-0.385V23.722H46.596L46.596,23.722z M46.271,16.993c0-1.897,1.333-3.024,3.023-3.024
	c1.808,0,3.023,1.215,3.023,3.024c0,1.956-1.275,3.023-3.083,3.023C47.515,20.016,46.271,18.949,46.271,16.993z M32.932,33.474
	c-0.83-3.291-2.786-10.463-3.527-13.932h-0.059c-0.623,3.468-2.193,9.337-3.438,13.932H32.932L32.932,33.474z M24.691,38.275
	l-2.342,8.893c-0.059,0.237-0.148,0.296-0.444,0.296h-4.357c-0.296,0-0.356-0.089-0.296-0.444l8.418-29.464
	c0.148-0.534,0.237-1.008,0.296-2.46c0-0.208,0.089-0.296,0.237-0.296h6.225c0.208,0,0.296,0.059,0.356,0.296l9.426,31.983
	c0.059,0.237,0,0.385-0.237,0.385h-4.92c-0.237,0-0.385-0.06-0.444-0.267l-2.431-8.922H24.691L24.691,38.275z"/>
</svg>
