<?xml version="1.0" encoding="utf-8"?>
<!-- Generator: Adobe Illustrator 15.1.0, SVG Export Plug-In . SVG Version: 6.00 Build 0)  -->
<!DOCTYPE svg PUBLIC "-//W3C//DTD SVG 1.1//EN" "http://www.w3.org/Graphics/SVG/1.1/DTD/svg11.dtd">
<svg version="1.1" xmlns="http://www.w3.org/2000/svg" xmlns:xlink="http://www.w3.org/1999/xlink" x="0px" y="0px" width="71px"
	 height="71px" viewBox="-1 -1 71 71" enable-background="new -1 -1 71 71" xml:space="preserve">
<g id="Layer_1">
	<g>
		<polyline fill="#5B4386" stroke="#B4A2DB" stroke-width="2" stroke-linecap="square" stroke-miterlimit="10" points="0,69 69,69 
			69,0 0,0 0,69 		"/>
		<path opacity="0.191" fill="#010101" enable-background="new    " d="M67.95,50.037c-5.4-5.421-23.75-23.423-23.75-23.423
			l-20.8-1.479v30.262l18.487,12.629h26.124"/>
		<path fill="#FFFFFF" d="M29.2,42.287v7.984h6c2.3,0,3.8-0.099,4.4-0.197c1-0.196,1.699-0.591,2.399-1.183
			c0.601-0.592,0.9-1.479,0.9-2.563c0-0.886-0.2-1.676-0.7-2.267s-1.1-1.084-2-1.38s-2.8-0.395-5.7-0.395H29.2 M29.2,30.064v7.195
			h4.2c2.5,0,4.1,0,4.7-0.099c1.1-0.098,2-0.492,2.6-1.083c0.6-0.592,0.9-1.38,0.9-2.464c0-0.985-0.301-1.775-0.801-2.366
			c-0.5-0.591-1.399-0.986-2.399-1.084c-0.601-0.099-2.5-0.099-5.5-0.099H29.2L29.2,30.064z M23.4,25.037h12.2
			c2.399,0,4.199,0.098,5.399,0.295s2.3,0.591,3.2,1.281c0.9,0.69,1.7,1.479,2.3,2.563c0.601,1.084,0.9,2.267,0.9,3.548
			c0,1.479-0.4,2.76-1.101,3.943C45.6,37.851,44.6,38.738,43.4,39.33c1.7,0.493,3,1.479,3.899,2.76c0.9,1.281,1.4,2.76,1.4,4.534
			c0,1.381-0.3,2.662-1,3.943c-0.6,1.282-1.5,2.365-2.6,3.056C44,54.411,42.6,54.904,41,55.003C40,55.101,37.5,55.2,33.6,55.2H23.4
			V25.037L23.4,25.037z"/>
	</g>
</g>
<g id="Layer_2" display="none">
	<g display="inline">
		<path fill="#FFFFFF" d="M15.4,20.9h1c0.3,0,0.6-0.101,0.7-0.2c0.1-0.1,0.199-0.3,0.199-0.4c0-0.199-0.1-0.3-0.199-0.399
			C17,19.8,16.7,19.7,16.4,19.7h-1V20.9 M15.4,18.5H16.3c0.301,0,0.5,0,0.601-0.1C17,18.3,17,18.2,17,18s-0.1-0.3-0.2-0.399
			C16.7,17.5,16.5,17.5,16.2,17.5h-0.9C15.4,17.5,15.4,18.5,15.4,18.5z M13.5,16.3H17.1c0.6,0,1,0.101,1.399,0.4
			c0.3,0.3,0.5,0.6,0.5,1c0,0.3-0.1,0.6-0.3,0.9C18.5,18.8,18.3,18.9,18,19c0.4,0.101,0.7,0.3,0.9,0.601c0.2,0.3,0.3,0.6,0.3,1
			c0,0.3-0.1,0.6-0.2,0.899c-0.1,0.3-0.3,0.5-0.6,0.601C18.2,22.2,18,22.3,17.7,22.3C17.3,22.4,17,22.4,16.9,22.4h-3.3V16.3H13.5z"
			/>
		<path fill="#FFFFFF" d="M21.5,20.1C21.5,20.5,21.6,20.8,21.7,21c0.2,0.2,0.3,0.3,0.6,0.3c0.2,0,0.4-0.1,0.601-0.3
			c0.1-0.2,0.2-0.5,0.2-0.899c0-0.4-0.101-0.7-0.2-0.9c-0.2-0.2-0.3-0.3-0.601-0.3c-0.199,0-0.399,0.1-0.6,0.3
			C21.6,19.5,21.5,19.7,21.5,20.1 M19.8,20.2c0-0.7,0.2-1.2,0.7-1.6c0.4-0.4,1-0.601,1.8-0.601c0.9,0,1.5,0.3,2,0.8
			c0.4,0.4,0.5,0.9,0.5,1.5c0,0.7-0.199,1.2-0.699,1.601C23.7,22.3,23,22.5,22.3,22.5C21.6,22.5,21,22.3,20.6,22
			C20.1,21.4,19.8,20.9,19.8,20.2z"/>
		<path fill="#FFFFFF" d="M27.1,20.1C27.1,20.5,27.2,20.8,27.3,21c0.2,0.2,0.301,0.3,0.601,0.3c0.2,0,0.399-0.1,0.6-0.3
			c0.101-0.2,0.2-0.5,0.2-0.899c0-0.4-0.1-0.7-0.2-0.9C28.4,19.1,28.2,19,28,19S27.6,19.1,27.4,19.3C27.2,19.5,27.1,19.7,27.1,20.1
			 M25.5,20.2c0-0.7,0.2-1.2,0.7-1.6C26.6,18.2,27.2,18,28,18c0.9,0,1.5,0.3,2,0.8c0.4,0.4,0.5,0.9,0.5,1.5c0,0.7-0.2,1.2-0.7,1.601
			C29.4,22.3,28.7,22.5,28,22.5s-1.3-0.2-1.7-0.5C25.7,21.4,25.5,20.9,25.5,20.2z"/>
		<path fill="#FFFFFF" d="M33.3,16.3V18h0.9v1.3h-0.9V20.9c0,0.2,0,0.3,0.101,0.399c0.1,0.101,0.2,0.101,0.3,0.101s0.3,0,0.5-0.101
			l0.1,1.101c-0.399,0.1-0.8,0.1-1.199,0.1c-0.4,0-0.7-0.1-0.9-0.2c-0.2-0.1-0.3-0.3-0.4-0.5c-0.1-0.199-0.1-0.6-0.1-1v-1.5H31V18
			H31.6v-0.8L33.3,16.3"/>
		<path fill="#FFFFFF" d="M34.7,21.2l1.7-0.2c0.1,0.2,0.1,0.3,0.3,0.4c0.1,0.1,0.3,0.1,0.4,0.1c0.199,0,0.3,0,0.5-0.1
			c0.1-0.101,0.1-0.2,0.1-0.3c0-0.101,0-0.2-0.1-0.301c0,0-0.301-0.1-0.7-0.199c-0.601-0.101-1-0.2-1.2-0.301
			c-0.2-0.1-0.4-0.199-0.6-0.399c-0.2-0.2-0.2-0.4-0.2-0.7s0.1-0.5,0.3-0.7s0.4-0.399,0.7-0.5c0.3-0.1,0.7-0.2,1.2-0.2
			S38,17.8,38.3,17.9c0.2,0.1,0.5,0.2,0.601,0.399c0.2,0.2,0.3,0.4,0.399,0.7L37.6,19.2c0-0.1-0.101-0.2-0.2-0.3
			C37.3,18.8,37.1,18.8,37,18.8c-0.2,0-0.3,0-0.399,0.101C36.5,19,36.5,19,36.5,19.1c0,0.1,0.101,0.199,0.2,0.199
			C36.8,19.4,37,19.4,37.4,19.4c0.6,0.1,1,0.1,1.2,0.3c0.3,0.1,0.5,0.3,0.6,0.5s0.2,0.4,0.2,0.7c0,0.2-0.101,0.5-0.2,0.7
			C39,21.8,38.8,22,38.5,22.2c-0.3,0.1-0.8,0.2-1.3,0.2c-0.8,0-1.4-0.101-1.7-0.3C35,21.9,34.8,21.6,34.7,21.2"/>
		<path fill="#FFFFFF" d="M42.1,16.3V18H43v1.3H42.1V20.9c0,0.2,0,0.3,0.1,0.399c0.1,0.101,0.2,0.101,0.3,0.101
			c0.101,0,0.3,0,0.5-0.101L43.1,22.4c-0.4,0.1-0.801,0.1-1.2,0.1c-0.4,0-0.7-0.1-0.9-0.2c-0.2-0.1-0.3-0.3-0.399-0.5
			C40.5,21.6,40.5,21.2,40.5,20.8v-1.5h-0.6V18h0.6v-0.8L42.1,16.3"/>
		<path fill="#FFFFFF" d="M43.8,18H45.4v0.8c0.2-0.3,0.3-0.5,0.5-0.699c0.2-0.101,0.399-0.2,0.6-0.2s0.5,0.1,0.8,0.2L46.8,19.3
			c-0.199-0.1-0.399-0.1-0.5-0.1c-0.199,0-0.399,0.1-0.5,0.3c-0.199,0.3-0.3,0.7-0.3,1.4V22.3h-1.7V18"/>
		<path fill="#FFFFFF" d="M50.7,20.3C50.5,20.4,50.3,20.4,50,20.5c-0.3,0.101-0.5,0.2-0.6,0.3C49.3,20.9,49.3,21,49.3,21.1
			c0,0.1,0,0.199,0.101,0.3c0.1,0.1,0.2,0.1,0.399,0.1c0.2,0,0.301,0,0.5-0.1c0.2-0.101,0.301-0.2,0.301-0.3
			c0.1-0.101,0.1-0.301,0.1-0.5V20.3 M49.4,19.5l-1.7-0.2c0.1-0.3,0.1-0.5,0.3-0.699c0.101-0.2,0.3-0.301,0.5-0.4S48.9,18,49.1,18
			c0.3,0,0.6-0.1,0.899-0.1c0.5,0,0.9,0,1.2,0.1c0.3,0.101,0.6,0.2,0.8,0.4c0.101,0.1,0.3,0.3,0.3,0.5
			C52.4,19.1,52.4,19.3,52.4,19.5v1.9c0,0.2,0,0.399,0,0.5c0,0.1,0.1,0.3,0.2,0.399H51c-0.1-0.1-0.1-0.199-0.1-0.3
			c0-0.1,0-0.2-0.101-0.3c-0.199,0.2-0.399,0.4-0.6,0.4c-0.3,0.1-0.6,0.199-1,0.199c-0.5,0-0.9-0.1-1.2-0.399
			C47.7,21.7,47.6,21.4,47.6,21c0-0.3,0.1-0.6,0.3-0.8s0.5-0.4,1.1-0.5c0.601-0.1,1-0.2,1.2-0.3c0.2,0,0.4-0.101,0.6-0.2
			c0-0.2,0-0.3-0.1-0.4C50.5,19,50.4,19,50.2,19s-0.4,0-0.5,0.101C49.6,19.2,49.5,19.3,49.4,19.5z"/>
		<path fill="#FFFFFF" d="M55.1,20.2c0,0.4,0.1,0.7,0.199,0.9c0.101,0.199,0.301,0.3,0.5,0.3c0.2,0,0.4-0.101,0.5-0.3
			c0.101-0.2,0.2-0.5,0.2-0.9s-0.1-0.7-0.2-0.9C56.2,19.1,56,19,55.8,19C55.6,19,55.4,19.1,55.3,19.3C55.1,19.4,55.1,19.7,55.1,20.2
			 M53.4,24v-6H55V18.6c0.2-0.2,0.4-0.4,0.601-0.5c0.199-0.101,0.5-0.2,0.8-0.2c0.6,0,1,0.2,1.399,0.7c0.301,0.399,0.5,1,0.5,1.699
			c0,0.7-0.199,1.301-0.5,1.7C57.5,22.4,57,22.6,56.5,22.6c-0.3,0-0.5,0-0.7-0.101c-0.199-0.1-0.399-0.2-0.6-0.3V24H53.4z"/>
	</g>
</g>
<g id="Layer_3">
	<text transform="matrix(1.0145 0 0 1 4.0334 19.5237)" fill="#FFFFFF" font-family="'Helvetica'" font-size="13.8">Bootstrap</text>
</g>
</svg>
