<?xml version="1.0" encoding="utf-8"?>
<!-- Generator: Adobe Illustrator 15.1.0, SVG Export Plug-In . SVG Version: 6.00 Build 0)  -->
<!DOCTYPE svg PUBLIC "-//W3C//DTD SVG 1.1//EN" "http://www.w3.org/Graphics/SVG/1.1/DTD/svg11.dtd">
<svg version="1.1" id="Layer_1" xmlns="http://www.w3.org/2000/svg" xmlns:xlink="http://www.w3.org/1999/xlink" x="0px" y="0px"
	 width="71.299px" height="80.827px" viewBox="20.201 0 71.299 80.827" enable-background="new 20.201 0 71.299 80.827"
	 xml:space="preserve">
<g>
	<polygon fill="#E44F26" points="26.731,72.691 20.201,0 91.5,0 84.969,72.691 55.85,80.828 	"/>
	<polygon fill="#F1662A" points="55.85,74.619 79.403,68.088 84.969,5.996 55.85,5.996 	"/>
	<polygon fill="#EBEBEB" points="55.85,32.974 44.074,32.974 43.218,23.767 55.85,23.767 55.85,14.881 55.85,14.881 33.476,14.881 
		33.689,17.236 35.938,41.859 55.85,41.859 	"/>
	<polygon fill="#EBEBEB" points="55.85,56.098 55.85,56.098 45.894,53.421 45.252,46.249 40.434,46.249 36.259,46.249 
		37.544,60.273 55.85,65.412 55.85,65.305 	"/>
	<polygon fill="#FFFFFF" points="55.85,32.974 55.85,41.859 66.77,41.859 65.806,53.421 55.85,56.098 55.85,65.412 74.05,60.273 
		74.264,58.774 76.298,35.329 76.512,32.974 74.157,32.974 	"/>
	<polygon fill="#FFFFFF" points="55.85,14.881 55.85,20.448 55.85,23.767 55.85,23.767 77.369,23.767 77.369,23.767 77.369,23.767 
		77.583,21.84 77.904,17.236 78.118,14.881 	"/>
</g>
</svg>
