<?xml version="1.0" encoding="utf-8"?>
<!-- Generator: Adobe Illustrator 15.1.0, SVG Export Plug-In . SVG Version: 6.00 Build 0)  -->
<!DOCTYPE svg PUBLIC "-//W3C//DTD SVG 1.1//EN" "http://www.w3.org/Graphics/SVG/1.1/DTD/svg11.dtd">
<svg version="1.1" id="Layer_1" xmlns="http://www.w3.org/2000/svg" xmlns:xlink="http://www.w3.org/1999/xlink" x="0px" y="0px"
	 width="72.173px" height="81.796px" viewBox="0.298 0 72.173 81.796" enable-background="new 0.298 0 72.173 81.796"
	 xml:space="preserve">
<g>
	<polygon fill="#1572B6" points="6.813,73.677 0.298,0 72.471,0 65.855,73.677 36.284,81.796 	"/>
	<polygon fill="#33A9DC" points="36.385,75.581 60.242,68.965 65.855,6.014 36.385,6.014 	"/>
	<g>
		<polygon fill="#FFFFFF" points="36.385,32.679 48.313,32.679 49.115,23.456 36.385,23.456 36.385,14.334 36.385,14.334 
			59.039,14.334 58.838,16.84 56.533,41.7 36.385,41.7 		"/>
		<polygon fill="#EBEBEB" points="36.385,56.135 36.385,56.135 26.361,53.428 25.659,46.211 20.747,46.211 16.637,46.211 
			17.84,60.445 36.385,65.558 36.385,65.558 		"/>
		<polygon fill="#FFFFFF" points="47.611,41.399 46.409,53.428 36.385,56.135 36.385,65.558 54.929,60.445 55.029,58.841 
			56.633,41.399 		"/>
		<polygon fill="#EBEBEB" points="36.385,14.334 36.385,20.048 36.385,23.456 36.385,23.456 14.532,23.456 14.532,23.456 
			14.532,23.456 14.331,21.351 13.931,16.84 13.73,14.334 		"/>
		<polygon fill="#EBEBEB" points="36.385,32.679 36.385,38.292 36.385,41.7 36.385,41.7 26.46,41.7 26.46,41.7 26.46,41.7 
			26.26,39.695 25.859,35.184 25.659,32.679 		"/>
	</g>
</g>
</svg>
