<?xml version="1.0" encoding="utf-8"?>
<!-- Generator: Adobe Illustrator 15.1.0, SVG Export Plug-In . SVG Version: 6.00 Build 0)  -->
<!DOCTYPE svg PUBLIC "-//W3C//DTD SVG 1.1//EN" "http://www.w3.org/Graphics/SVG/1.1/DTD/svg11.dtd">
<svg version="1.1" id="Layer_1" xmlns="http://www.w3.org/2000/svg" xmlns:xlink="http://www.w3.org/1999/xlink" x="0px" y="0px"
	 width="70.215px" height="70.11px" viewBox="0 0 70.215 70.11" enable-background="new 0 0 70.215 70.11" xml:space="preserve">
<path fill="#FFFFFF" d="M68.646,35.055 M35.055,0C15.696,0,0,15.696,0,35.055C0,54.414,15.696,70.11,35.055,70.11
	c19.358,0,35.16-15.696,35.16-35.055C70.215,15.696,54.414,0,35.055,0z"/>
<path fill="#2857BF" d="M64.982,35.16c0-3.139-0.523-6.069-1.36-8.895L50.229,60.902C59.018,55.669,64.982,46.147,64.982,35.16
	L64.982,35.16z"/>
<path fill="#2857BF" d="M25.638,63.518c2.93,1.046,6.173,1.57,9.417,1.57c3.453,0,6.802-0.628,9.836-1.674l-9-23.649L25.638,63.518
	L25.638,63.518z"/>
<path fill="#2857BF" d="M6.488,26.684c-0.837,2.72-1.256,5.546-1.256,8.476c0,11.197,6.173,20.929,15.277,26.056L6.592,26.893
	L6.488,26.684L6.488,26.684z"/>
<path fill="#2857BF" d="M21.661,24.8l-1.256-0.105c-2.825,0-2.511,2.826-2.511,2.826l9.94,24.905l6.698-15.906l-3.767-9.522
	c-1.466-2.511-5.127-2.511-5.127-2.511v-1.361h20.823v1.465l-2.198,0.104c-2.72,0-2.197,2.617-2.197,2.617l9.104,24.172l2.616-6.697
	c4.604-10.464,1.779-18.208,1.779-18.208c-4.604-9.522,1.255-10.883,1.255-10.883c0.419-0.104,0.733-0.104,1.046-0.104
	C52.426,9.208,44.263,5.127,35.159,5.127c-12.347,0-22.916,7.43-27.416,18.103l13.917-0.104L21.661,24.8L21.661,24.8z"/>
<path fill="#2857BF" d="M68.646,35.055c0,18.521-15.069,33.589-33.59,33.589c-18.522,0-33.59-15.068-33.59-33.589
	c0-18.522,15.068-33.59,33.59-33.59C53.577,1.569,68.646,16.533,68.646,35.055z M35.055,0C15.696,0,0,15.696,0,35.055
	C0,54.414,15.696,70.11,35.055,70.11c19.358,0,35.16-15.696,35.16-35.055C70.215,15.696,54.414,0,35.055,0z"/>
</svg>
