<?xml version="1.0" encoding="utf-8"?>
<!-- Generator: Adobe Illustrator 18.0.0, SVG Export Plug-In . SVG Version: 6.00 Build 0)  -->
<!DOCTYPE svg PUBLIC "-//W3C//DTD SVG 1.1//EN" "http://www.w3.org/Graphics/SVG/1.1/DTD/svg11.dtd">
<svg version="1.1" id="Layer_1" xmlns="http://www.w3.org/2000/svg" xmlns:xlink="http://www.w3.org/1999/xlink" x="0px" y="0px"
	 viewBox="0 0 47.9 54.3" enable-background="new 0 0 47.9 54.3" xml:space="preserve">
<g>
	<polygon fill="#1572B6" points="4.3,48.9 0,0 47.9,0 43.5,48.9 23.9,54.3 	"/>
	<polygon fill="#33A9DC" points="24,50.2 39.8,45.8 43.5,4 24,4 	"/>
	<g>
		<polygon fill="#FFFFFF" points="24,21.7 31.9,21.7 32.4,15.6 24,15.6 24,9.5 24,9.5 39,9.5 38.9,11.2 37.4,27.7 24,27.7 		"/>
		<polygon fill="#EBEBEB" points="24,37.3 24,37.3 17.3,35.5 16.8,30.7 13.6,30.7 10.9,30.7 11.7,40.2 24,43.5 24,43.5 		"/>
		<polygon fill="#FFFFFF" points="31.4,27.5 30.6,35.5 24,37.3 24,43.5 36.3,40.2 36.4,39.1 37.4,27.5 		"/>
		<polygon fill="#EBEBEB" points="24,9.5 24,13.3 24,15.6 24,15.6 9.5,15.6 9.5,15.6 9.5,15.6 9.3,14.2 9.1,11.2 8.9,9.5 		"/>
		<polygon fill="#EBEBEB" points="24,21.7 24,25.4 24,27.7 24,27.7 17.4,27.7 17.4,27.7 17.4,27.7 17.2,26.4 17,23.4 16.8,21.7 		
			"/>
	</g>
</g>
</svg>
